<svg xmlns="http://www.w3.org/2000/svg" viewBox="0 0 512 512" width="512" height="512"><defs><linearGradient id="desk" x1="0.0" y1="512.0" x2="512.0" y2="0.0" gradientUnits="userSpaceOnUse"><stop offset="0" stop-color="#6FA8FF"/><stop offset="1" stop-color="#A78BFA"/></linearGradient><linearGradient id="spk" x1="0" y1="0.0" x2="0" y2="199.68" gradientUnits="userSpaceOnUse"><stop offset="0" stop-color="#FFFFFF"/><stop offset="1" stop-color="#DCE5FF"/></linearGradient><radialGradient id="halo" cx=".5" cy=".5" r=".5"><stop offset="0" stop-color="#C9B8FF" stop-opacity=".55"/><stop offset="1" stop-color="#C9B8FF" stop-opacity="0"/></radialGradient></defs><line x1="256.000" y1="102.400" x2="87.040" y2="399.360" stroke="#B4C6FF" stroke-opacity="0.5" stroke-width="20.480" stroke-linecap="round"/><line x1="256.000" y1="102.400" x2="256.000" y2="399.360" stroke="#B4C6FF" stroke-opacity="0.5" stroke-width="20.480" stroke-linecap="round"/><line x1="256.000" y1="102.400" x2="424.960" y2="399.360" stroke="#B4C6FF" stroke-opacity="0.5" stroke-width="20.480" stroke-linecap="round"/><rect x="20.480" y="348.160" width="133.120" height="102.400" rx="33.280" fill="url(#desk)" opacity="1.0"/><rect x="189.440" y="348.160" width="133.120" height="102.400" rx="33.280" fill="url(#desk)" opacity="1.0"/><rect x="358.400" y="348.160" width="133.120" height="102.400" rx="33.280" fill="url(#desk)" opacity="1.0"/><circle cx="256.000" cy="102.400" r="153.600" fill="url(#halo)"/><path d="M256.000,5.120 Q268.186,85.862 327.680,102.400 Q268.186,118.938 256.000,199.680 Q243.814,118.938 184.320,102.400 Q243.814,85.862 256.000,5.120 Z" fill="url(#spk)"/></svg>