<svg xmlns="http://www.w3.org/2000/svg" viewBox="0 0 512 512" width="512" height="512"><defs></defs><line x1="256.000" y1="77.568" x2="93.082" y2="279.296" stroke="currentColor" stroke-opacity="1" stroke-width="13.978" stroke-linecap="round"/><line x1="256.000" y1="77.568" x2="256.000" y2="279.296" stroke="currentColor" stroke-opacity="1" stroke-width="13.978" stroke-linecap="round"/><line x1="256.000" y1="77.568" x2="418.918" y2="279.296" stroke="currentColor" stroke-opacity="1" stroke-width="13.978" stroke-linecap="round"/><line x1="93.082" y1="279.296" x2="93.082" y2="465.459" stroke="currentColor" stroke-opacity="1" stroke-width="13.978" stroke-linecap="round"/><line x1="93.082" y1="279.296" x2="256.000" y2="465.459" stroke="currentColor" stroke-opacity="1" stroke-width="13.978" stroke-linecap="round"/><line x1="93.082" y1="279.296" x2="418.918" y2="465.459" stroke="currentColor" stroke-opacity="1" stroke-width="13.978" stroke-linecap="round"/><line x1="256.000" y1="279.296" x2="93.082" y2="465.459" stroke="currentColor" stroke-opacity="1" stroke-width="13.978" stroke-linecap="round"/><line x1="256.000" y1="279.296" x2="256.000" y2="465.459" stroke="currentColor" stroke-opacity="1" stroke-width="13.978" stroke-linecap="round"/><line x1="256.000" y1="279.296" x2="418.918" y2="465.459" stroke="currentColor" stroke-opacity="1" stroke-width="13.978" stroke-linecap="round"/><line x1="418.918" y1="279.296" x2="93.082" y2="465.459" stroke="currentColor" stroke-opacity="1" stroke-width="13.978" stroke-linecap="round"/><line x1="418.918" y1="279.296" x2="256.000" y2="465.459" stroke="currentColor" stroke-opacity="1" stroke-width="13.978" stroke-linecap="round"/><line x1="418.918" y1="279.296" x2="418.918" y2="465.459" stroke="currentColor" stroke-opacity="1" stroke-width="13.978" stroke-linecap="round"/><rect x="31.027" y="232.755" width="124.109" height="93.082" rx="31.027" fill="currentColor" opacity="1"/><rect x="193.946" y="232.755" width="124.109" height="93.082" rx="31.027" fill="currentColor" opacity="1"/><rect x="356.864" y="232.755" width="124.109" height="93.082" rx="31.027" fill="currentColor" opacity="1"/><rect x="31.027" y="418.918" width="124.109" height="93.082" rx="31.027" fill="currentColor" opacity="1"/><rect x="193.946" y="418.918" width="124.109" height="93.082" rx="31.027" fill="currentColor" opacity="1"/><rect x="356.864" y="418.918" width="124.109" height="93.082" rx="31.027" fill="currentColor" opacity="1"/><path d="M256.000,0.000 Q266.549,64.381 318.054,77.568 Q266.549,90.755 256.000,155.136 Q245.451,90.755 193.946,77.568 Q245.451,64.381 256.000,0.000 Z" fill="currentColor"/></svg>